<svg width="24" height="24" viewBox="0 0 24 24" xmlns="http://www.w3.org/2000/svg" xmlns:xlink="http://www.w3.org/1999/xlink">
  <title>YouTube</title>
  <defs>
    <path d="M21.833 8S22 9.583 22 11.167v1.5c0 1.666-.167 3.25-.167 3.25s-.25 1.416-.833 2c-.75.75-1.583.75-2 .833-2.833.25-7 .25-7 .25s-5.25 0-6.833-.167C4.75 18.75 3.75 18.833 3 18c-.667-.583-.833-2-.833-2S2 14.333 2 12.75v-1.5C2 9.583 2.167 8 2.167 8s.25-1.417.833-2c.75-.75 1.583-.75 2-.833C7.833 5 12 5 12 5s4.167 0 7 .167c.417 0 1.25 0 2 .833.667.583.833 2 .833 2zM9.917 14.583l5.416-2.75L9.917 9v5.583z" id="a"/>
  </defs>
  <use fill="#fff" xlink:href="#a" fill-rule="evenodd"/>
</svg>