<svg xmlns="http://www.w3.org/2000/svg" xmlns:xlink="http://www.w3.org/1999/xlink" width="35.5" height="32.615" viewBox="0 0 35.5 32.615">
  <defs>
    <clipPath id="clip-path">
      <rect id="Rectangle_5848" data-name="Rectangle 5848" width="35.5" height="32.615" transform="translate(0 0)" fill="#423e3e"/>
    </clipPath>
  </defs>
  <g id="icon--basket-filled" clip-path="url(#clip-path)">
    <path id="Path_26436" data-name="Path 26436" d="M35.221,11.251a1.045,1.045,0,0,0-.826-.413H31.69l-.067-.09L23.9.467A1.119,1.119,0,1,0,22.109,1.81l6.505,8.712.268.448H6.562l.278-.363,6.735-8.8A1.077,1.077,0,0,0,13.416.292l-.06-.045a1.119,1.119,0,0,0-1.574.169l-.008.01L3.784,10.93l-.067.088H1.1a1.039,1.039,0,0,0-.82.406,1.221,1.221,0,0,0-.27.954l3.14,15.388a5.993,5.993,0,0,0,5.89,4.759l17.33.09h.043a6.083,6.083,0,0,0,5.932-4.849l3.143-15.579a1.21,1.21,0,0,0-.268-.936M12.492,25.559a1.167,1.167,0,0,1-1.119,1.129,1.12,1.12,0,0,1-1.119-1.119v-7.94a1.072,1.072,0,0,1,1.076-1.04h.047A1.12,1.12,0,0,1,12.5,17.708Zm6.383,0a1.123,1.123,0,0,1-2.245,0V17.7a1.12,1.12,0,0,1,1.119-1.119l.007,0a1.12,1.12,0,0,1,1.119,1.119Zm6.374,0a1.12,1.12,0,0,1-1.119,1.119A1.169,1.169,0,0,1,23,25.562V17.694a1.12,1.12,0,0,1,1.13-1.108h.079A1.08,1.08,0,0,1,25.25,17.7Z" transform="translate(0 0)" fill="#423e3e"/>
  </g>
</svg>
