<?xml version="1.0" encoding="UTF-8"?>
<svg id="a" xmlns="http://www.w3.org/2000/svg" viewBox="0 0 184.88 106.91">
  <defs>
    <style>
      .b {
        fill: #fff;
      }
    </style>
  </defs>
  <g>
    <path class="b" d="m98.25,79.37c-.97-1.11-2.05-2.51-2.98-3.72h-.33v3.72h-1.74v-8.91h1.74v3.58c1.05-1.07,2.21-2.35,3.21-3.58h2.27c-1.41,1.61-2.81,3.06-3.89,4.12,1.23,1.55,2.66,3.2,4.15,4.79h-2.44Z"/>
    <path class="b" d="m100.81,79.37v-8.91h1.74v8.91h-1.74Z"/>
    <path class="b" d="m105.62,79.37v-7.39h-2.41v-1.52h6.56v1.52h-2.41v7.39h-1.74Z"/>
    <path class="b" d="m110.42,79.37v-8.91h5.54v1.52h-3.79v2.08h3.14v1.49h-3.14v2.3h3.79v1.52h-5.54Z"/>
    <path class="b" d="m124.11,79.37c-.04-2.12-.14-4.33-.24-6.42h-.07l-1.63,5.02h-1.76l-1.63-5.02h-.07c-.1,2.09-.19,4.3-.24,6.42h-1.76c.1-2.96.24-5.94.4-8.91h2.42l1.72,5.48h.07l1.72-5.48h2.42c.17,2.98.3,5.95.4,8.91h-1.76Z"/>
    <path class="b" d="m132.19,79.37c-.14-.57-.26-1.04-.42-1.61h-3.29c-.15.57-.28,1.04-.41,1.61h-1.76c.82-3.1,1.68-5.97,2.66-8.91h2.33c.98,2.95,1.84,5.81,2.66,8.91h-1.76Zm-.83-3.14c-.33-1.22-.83-2.92-1.2-4.19h-.06c-.37,1.27-.87,2.98-1.2,4.19h2.46Z"/>
    <path class="b" d="m139.3,79.37c-.64-1.18-1.19-2.28-1.72-3.45-.39,0-.91-.01-1.25-.04v3.49h-1.74v-8.86c.84-.1,1.95-.18,2.81-.18,1.83,0,3.53.44,3.53,2.75,0,1.25-.51,2.16-1.7,2.6.51,1.05,1.3,2.41,2.08,3.68h-2.01Zm-2.96-4.75c.79,0,1.43,0,1.88-.14.64-.18.94-.57.94-1.37,0-1.07-.76-1.26-1.62-1.26-.4,0-.83.01-1.2.04v2.73Z"/>
    <path class="b" d="m147.05,79.37c-.97-1.11-2.05-2.51-2.98-3.72h-.33v3.72h-1.74v-8.91h1.74v3.58c1.05-1.07,2.21-2.35,3.21-3.58h2.27c-1.41,1.61-2.81,3.06-3.89,4.12,1.23,1.55,2.66,3.2,4.15,4.79h-2.44Z"/>
    <path class="b" d="m150.04,75.42v-3.97h-1.2v-.98h3.53v.98h-1.2v3.97h-1.12Zm6.84,0l-.07-2.81h-.01l-.86,1.81h-1.08l-.86-1.81h-.01l-.07,2.81h-1.13l.11-4.95h1.2l1.29,2.66h.03l1.29-2.66h1.2l.11,4.95h-1.13Z"/>
  </g>
  <g>
    <path class="b" d="m93.28,17.59c.71-.11,1.8-.22,2.64-.22,2.85,0,4.01,1.51,4.01,4.58s-1.16,4.55-4.01,4.55c-.84,0-1.94-.06-2.64-.11v-8.8Zm1.33,7.71c.46.03.82.03,1.19.03,2.02,0,2.78-.84,2.78-3.38s-.76-3.42-2.78-3.42c-.44,0-.87.03-1.19.07v6.7Z"/>
    <path class="b" d="m103.48,26.54c-.9,0-1.55-.25-2.02-.71-.59-.57-.84-1.49-.84-2.63s.25-2.06.84-2.63c.47-.46,1.12-.71,2.02-.71s1.55.25,2.02.71c.6.57.84,1.49.84,2.63s-.25,2.06-.84,2.63c-.47.46-1.12.71-2.02.71Zm1.59-3.34c0-.77-.12-1.41-.46-1.79-.25-.29-.64-.44-1.13-.44s-.89.15-1.13.44c-.33.37-.46,1.01-.46,1.79s.12,1.43.46,1.79c.25.29.64.44,1.13.44s.87-.17,1.13-.44c.33-.36.46-1,.46-1.79Z"/>
    <path class="b" d="m114.82,26.4v-4.24c0-.8-.39-1.16-1.09-1.16-.48,0-1,.17-1.48.44.04.25.07.54.07.79v4.17h-1.26v-4.24c0-.8-.37-1.16-1.08-1.16-.51,0-.96.14-1.43.39v5.01h-1.26v-6.39h.93l.11.58c.46-.35,1.11-.72,1.92-.72.76,0,1.33.29,1.66.82.55-.46,1.23-.82,1.99-.82,1.43,0,2.17.79,2.17,2.35v4.18h-1.26Z"/>
    <path class="b" d="m121.96,26.03c-.57.26-1.38.51-2.21.51-1.88,0-2.89-1.18-2.89-3.29,0-1.76.8-3.38,2.75-3.38,1.55,0,2.45,1.11,2.45,2.82,0,.35-.04.69-.1.97h-3.83c.03.57.17,1.02.43,1.31.29.32.75.44,1.27.44.66,0,1.31-.18,1.84-.4l.29,1.01Zm-1.09-3.36c0-.96-.28-1.72-1.3-1.72-.93,0-1.37.83-1.43,1.72h2.73Z"/>
    <path class="b" d="m122.77,25.23c.59.1,1.23.19,1.88.19.47,0,.91-.04,1.19-.24.19-.12.3-.3.3-.57,0-.51-.39-.68-1.55-.98-1.02-.26-1.97-.68-1.97-1.9,0-.69.32-1.19.83-1.49.47-.29,1.08-.37,1.73-.37s1.3.08,1.83.19l-.11,1.05c-.48-.07-1.02-.12-1.58-.12s-.93.06-1.16.22c-.17.11-.26.28-.26.48,0,.51.51.62,1.79,1,1.12.33,1.74.83,1.74,1.85,0,.69-.28,1.19-.71,1.51-.51.37-1.22.48-1.95.48s-1.49-.1-2.13-.25l.12-1.07Z"/>
    <path class="b" d="m131.58,26.13c-.43.22-.98.39-1.54.39-1.04,0-1.63-.58-1.63-1.74v-3.72h-.96v-.93l1-.06.1-1.88h1.12v1.83h1.79v1.04h-1.79v3.53c0,.47.08.8.57.8.3,0,.59-.08.93-.24l.41.98Z"/>
    <path class="b" d="m132.96,17.45c.39,0,.71.32.71.71s-.32.69-.71.69-.69-.3-.69-.69.3-.71.69-.71Zm-.62,8.95v-6.39h1.26v6.39h-1.26Z"/>
    <path class="b" d="m139.49,26.03c-.58.28-1.4.51-2.19.51-1.67,0-2.75-.94-2.75-3.31,0-2.71,1.37-3.36,2.93-3.36.62,0,1.25.07,1.77.19l-.11,1.05c-.46-.07-.97-.12-1.45-.12-1.23,0-1.87.48-1.87,2.21,0,1.55.53,2.21,1.61,2.21.62,0,1.2-.18,1.72-.4l.35,1.01Z"/>
    <path class="b" d="m93.28,40.85v-8.91h5.38v1.18h-4.05v2.74h3.35v1.15h-3.35v3.85h-1.33Z"/>
    <path class="b" d="m103.14,40.85l-.1-.54c-.5.37-1.18.69-1.94.69-1.44,0-2.16-.87-2.16-2.23v-4.32h1.26v4.19c0,.87.37,1.2,1.12,1.2.51,0,1.01-.14,1.48-.36v-5.04h1.26v6.39h-.93Z"/>
    <path class="b" d="m105.42,40.85v-6.39h.94l.17.79h.06c.5-.72,1.09-.91,1.9-.91.15,0,.3,0,.55.03l-.08,1.15c-.25-.04-.5-.06-.76-.06-.54,0-1.08.12-1.51.48v4.91h-1.26Z"/>
    <path class="b" d="m113.49,40.85v-4.19c0-.82-.37-1.2-1.08-1.2-.59,0-1.12.19-1.55.4v5h-1.26v-6.39h.93l.11.58c.5-.39,1.19-.72,1.94-.72,1.45,0,2.17.87,2.17,2.23v4.3h-1.26Z"/>
    <path class="b" d="m116.62,31.89c.39,0,.71.32.71.71s-.32.69-.71.69-.69-.3-.69-.69.3-.71.69-.71Zm-.62,8.95v-6.39h1.26v6.39h-1.26Z"/>
    <path class="b" d="m121.99,40.57c-.43.22-.98.39-1.54.39-1.04,0-1.63-.58-1.63-1.74v-3.72h-.96v-.93l1-.06.1-1.88h1.12v1.83h1.79v1.04h-1.79v3.53c0,.47.08.8.57.8.3,0,.59-.08.93-.24l.41.98Z"/>
    <path class="b" d="m126.82,40.85l-.1-.54c-.5.37-1.18.69-1.94.69-1.44,0-2.16-.87-2.16-2.23v-4.32h1.26v4.19c0,.87.37,1.2,1.12,1.2.51,0,1.01-.14,1.48-.36v-5.04h1.26v6.39h-.93Z"/>
    <path class="b" d="m129.11,40.85v-6.39h.94l.17.79h.06c.5-.72,1.09-.91,1.9-.91.15,0,.3,0,.55.03l-.08,1.15c-.25-.04-.5-.06-.76-.06-.54,0-1.08.12-1.51.48v4.91h-1.26Z"/>
    <path class="b" d="m137.92,40.47c-.57.26-1.38.51-2.21.51-1.88,0-2.89-1.18-2.89-3.29,0-1.76.8-3.38,2.75-3.38,1.55,0,2.45,1.11,2.45,2.82,0,.35-.04.69-.1.97h-3.83c.03.57.17,1.02.43,1.31.29.32.75.44,1.27.44.66,0,1.31-.18,1.84-.4l.29,1.01Zm-1.09-3.36c0-.96-.28-1.72-1.3-1.72-.93,0-1.37.83-1.43,1.72h2.73Z"/>
  </g>
  <path class="b" d="m142.23,93.84H42.65c-.59,0-1.07-.48-1.07-1.07s.48-1.07,1.07-1.07h99.57c22.34,0,40.52-18.18,40.52-40.52s-18.18-40.52-40.52-40.52H63.98c-.59,0-1.07-.48-1.07-1.07s.48-1.07,1.07-1.07h78.25c23.52,0,42.65,19.13,42.65,42.65s-19.13,42.65-42.65,42.65Z"/>
  <path class="b" d="m45.13,41.05c.31-4.81,4.25-8.63,9.05-8.63s8.74,3.81,9.05,8.63h-18.1Zm7.63,21.5c-1.28-3.77-4.33-5.76-6.89-7.43-2.85-1.86-4.04-2.82-4.09-4.6.02-2.44,1.96-4.44,4.34-4.44h15.81l-9.17,16.47Zm-12.24,14.33c.09.02,1.11.19,2.13.19.97,0,1.95-.15,2.13-.2l-2.13,3.81-2.13-3.81Zm-2.58-30.8c-.67,1.29-1.07,2.76-1.09,4.31h0c0,.05,0,.1,0,.15h0c.08,4.73,3.56,7.01,6.38,8.84,3.34,2.18,5.23,3.58,5.23,7.16s-2.79,5.57-6.23,5.57c-2.2,0-4.99-1.18-6.11-3.14l-.99-1.71-11.87-21.19h14.67Zm-6.61-13.65c4.8,0,8.74,3.81,9.05,8.63h-18.09c.31-4.81,4.25-8.63,9.04-8.63m22.84-4.8c-4.66,0-8.86,2.32-11.42,6.24-2.56-3.93-6.76-6.24-11.42-6.24-7.72,0-13.99,6.3-13.99,14.04,0,0,0,.07,0,1.42s.16,2.56,1.23,4.41c1.07,1.85,24.09,41.54,24.09,41.54,0,0,22.85-39.45,23.98-41.54,1.13-2.1,1.31-2.99,1.31-4.41v-1.42c0-7.74-6.18-14.04-13.77-14.04"/>
  <path class="b" d="m33.99,7.46c-1.53,0-3,.5-4.09,1.23V0h-3.42v23.51h2.01l.55-1.26c1.34,1.01,2.9,1.63,4.95,1.63,4.45,0,6.1-3.07,6.1-8.21s-1.65-8.21-6.1-8.21m-.8,2.98c3,0,3.45,2.35,3.45,5.23s-.46,5.24-3.45,5.24c-1.62,0-2.69-.57-3.3-.92v-8.65c.61-.35,1.68-.91,3.3-.91m11.23,1.91c0-1.41,1.13-1.94,2.94-1.94,1.92,0,3.36.37,4.67.88v-3.05c-1.19-.53-2.66-.78-4.74-.78-4.49,0-6.2,2.29-6.2,4.99s1.13,4.16,5.74,4.58c2.04.18,2.53.78,2.53,1.94,0,1.38-1.19,1.95-3.63,1.95-1.93,0-3.54-.51-4.55-.88v3.01c1.04.44,2.93.85,5.04.85,4.89,0,6.51-2.35,6.51-5.05,0-2.91-1.19-4.33-5.77-4.73-1.99-.19-2.54-.66-2.54-1.76m13.74,11.38c.37,0,.67-.07.67-.07v-2.85c-.98,0-1.28-.32-1.28-1.19V7.84h-3.42v11.82c0,2.69,1.26,4.08,4.03,4.08m-4.55-20.54c0,1.26,1.01,2.29,2.23,2.29s2.23-1.03,2.23-2.29-1.01-2.29-2.23-2.29-2.23,1.03-2.23,2.29"/>
  <path class="b" d="m42.65,93.84C19.13,93.84,0,74.7,0,51.18c0-15.15,7.77-28.85,20.78-36.63.5-.3,1.16-.14,1.46.37.3.51.14,1.16-.37,1.46C9.51,23.78,2.13,36.79,2.13,51.18c0,22.34,18.18,40.52,40.52,40.52s40.52-18.18,40.52-40.52c0-14.4-7.38-27.4-19.74-34.8-.51-.3-.67-.96-.37-1.46.3-.51.96-.67,1.46-.37,13.01,7.78,20.78,21.47,20.78,36.63,0,23.52-19.13,42.65-42.65,42.65Z"/>
  <g>
    <path class="b" d="m97.34,106.79c-.92-1.04-1.9-2.27-2.8-3.44h-.33v3.44h-1.14v-7.62h1.14v3.25c1.02-.98,2.09-2.14,3.03-3.25h1.5c-1.24,1.39-2.38,2.56-3.36,3.5,1.09,1.37,2.24,2.7,3.55,4.12h-1.59Z"/>
    <path class="b" d="m106.27,106.79c-.06-2.04-.15-4.13-.25-6.14h-.06l-1.73,4.85h-1.22l-1.73-4.85h-.06c-.09,2.01-.19,4.11-.25,6.14h-1.15c.08-2.53.21-5.08.35-7.62h1.66l1.75,5.05h.06l1.75-5.05h1.66c.14,2.54.27,5.09.36,7.62h-1.15Z"/>
    <path class="b" d="m112.84,106.79c.66-2.56,1.48-4.45,2.69-6.63h-3.81v-.99h4.98v.93c-1.21,2.17-2.02,4.06-2.64,6.69h-1.22Z"/>
    <path class="b" d="m118.02,105.72c.4.07,1.15.18,1.85.18.63,0,1.23-.08,1.53-.41.25-.26.37-.65.37-1.16,0-1.12-.51-1.5-1.59-1.5h-2.15l.13-3.66h4.32v1.01h-3.27l-.06,1.66h1.2c1.62,0,2.58.69,2.58,2.51,0,.85-.26,1.51-.76,1.96-.53.49-1.31.6-2.12.6-.76,0-1.54-.11-2.17-.22l.14-.96Z"/>
    <path class="b" d="m124.38,101.59c0-.88.25-1.51.73-1.94.5-.43,1.21-.6,2.06-.6.72,0,1.48.11,2.11.24l-.14.95c-.39-.08-1.09-.19-1.76-.19-.61,0-1.18.08-1.5.4-.24.25-.35.65-.35,1.23v.6c.4-.27,1.03-.47,1.7-.47.76,0,1.42.21,1.86.66.39.41.6,1.02.6,1.88,0,.82-.21,1.43-.6,1.85-.45.49-1.22.71-2.08.71-.76,0-1.43-.18-1.88-.56-.49-.41-.73-1.05-.73-1.93v-2.83Zm1.14,2.77c0,1.04.39,1.55,1.5,1.55s1.5-.51,1.5-1.55c0-.53-.11-.93-.35-1.2-.26-.28-.66-.37-1.16-.37-.56,0-1.11.13-1.49.27v1.29Z"/>
    <path class="b" d="m136.14,104.68c0,1.46-1.02,2.22-2.64,2.22s-2.64-.77-2.64-2.22c0-1.08.58-1.64,1.27-1.86-.62-.24-1.11-.75-1.11-1.67,0-1.35,1.02-2.11,2.49-2.11s2.49.76,2.49,2.11c0,.92-.5,1.43-1.11,1.67.69.21,1.27.78,1.27,1.86Zm-2.64-1.36c-.89,0-1.47.39-1.47,1.3s.56,1.27,1.47,1.27,1.47-.37,1.47-1.27-.58-1.3-1.47-1.3Zm0-3.25c-.86,0-1.34.33-1.34,1.12s.54,1.16,1.34,1.16,1.34-.36,1.34-1.16-.47-1.12-1.34-1.12Z"/>
    <path class="b" d="m142.72,104.68c0,1.46-1.02,2.22-2.64,2.22s-2.64-.77-2.64-2.22c0-1.08.58-1.64,1.27-1.86-.62-.24-1.11-.75-1.11-1.67,0-1.35,1.02-2.11,2.49-2.11s2.49.76,2.49,2.11c0,.92-.5,1.43-1.11,1.67.69.21,1.27.78,1.27,1.86Zm-2.64-1.36c-.89,0-1.47.39-1.47,1.3s.56,1.27,1.47,1.27,1.47-.37,1.47-1.27-.58-1.3-1.47-1.3Zm0-3.25c-.86,0-1.34.33-1.34,1.12s.54,1.16,1.34,1.16,1.34-.36,1.34-1.16-.47-1.12-1.34-1.12Z"/>
    <path class="b" d="m144.17,102.98c0-2.56.53-3.93,2.76-3.93s2.75,1.37,2.75,3.93-.53,3.93-2.75,3.93-2.76-1.38-2.76-3.93Zm4.37,0c0-1.81-.11-2.94-1.61-2.94s-1.62,1.12-1.62,2.94.09,2.95,1.62,2.95,1.61-1.15,1.61-2.95Z"/>
  </g>
</svg>