<svg xmlns="http://www.w3.org/2000/svg" width="23.232" height="30.84" viewBox="0 0 23.232 30.84">
  <path id="calculator" d="M21.256,0H1.976A1.979,1.979,0,0,0,0,1.976V28.864A1.979,1.979,0,0,0,1.976,30.84h19.28a1.979,1.979,0,0,0,1.976-1.976V1.976A1.979,1.979,0,0,0,21.256,0m-2.01,16.055H15.98a.239.239,0,0,1-.239-.239V13.255a.239.239,0,0,1,.239-.239h3.266a.239.239,0,0,1,.239.239v2.561a.239.239,0,0,1-.239.239m.239,2.643v8a.239.239,0,0,1-.239.239H15.98a.239.239,0,0,1-.239-.239v-8a.239.239,0,0,1,.239-.239h3.266a.239.239,0,0,1,.239.239m-.608-8.549H4.356a.608.608,0,0,1-.608-.608V4.508A.609.609,0,0,1,4.356,3.9H18.877a.609.609,0,0,1,.608.608V9.541a.608.608,0,0,1-.608.608M13.249,21.5H9.983a.239.239,0,0,1-.239-.239V18.7a.239.239,0,0,1,.239-.239h3.266a.239.239,0,0,1,.239.239v2.561a.239.239,0,0,1-.239.239m.239,2.643V26.7a.239.239,0,0,1-.239.239H9.983a.239.239,0,0,1-.239-.239V24.141a.239.239,0,0,1,.239-.239h3.266a.239.239,0,0,1,.239.239m-.239-8.086H9.983a.239.239,0,0,1-.239-.239V13.255a.239.239,0,0,1,.239-.239h3.266a.239.239,0,0,1,.239.239v2.561a.239.239,0,0,1-.239.239m-6,5.443H3.986a.239.239,0,0,1-.239-.239V18.7a.239.239,0,0,1,.239-.239H7.252a.239.239,0,0,1,.239.239v2.561a.239.239,0,0,1-.239.239m.239,2.643V26.7a.239.239,0,0,1-.239.239H3.986a.239.239,0,0,1-.239-.239V24.141a.239.239,0,0,1,.239-.239H7.252a.239.239,0,0,1,.239.239m-.239-8.086H3.986a.239.239,0,0,1-.239-.239V13.255a.239.239,0,0,1,.239-.239H7.252a.239.239,0,0,1,.239.239v2.561a.239.239,0,0,1-.239.239" fill="#272727"/>
</svg>
