<svg xmlns="http://www.w3.org/2000/svg" width="35.067" height="32.4" viewBox="0 0 35.067 32.4">
  <g id="_5_Star_Reviews" data-name="5 Star Reviews" transform="translate(-30.47 -54.95)">
    <path id="Path_26890" data-name="Path 26890" d="M34.952,54.95h26.1a4.544,4.544,0,0,1,4.482,4.594V75.9a4.546,4.546,0,0,1-4.484,4.6H44.8l-6.8,6.7a.55.55,0,0,1-.937-.392V80.494h-2.1a4.548,4.548,0,0,1-4.486-4.6V59.544A4.544,4.544,0,0,1,34.952,54.95Zm26.1,24.443a3.445,3.445,0,0,0,3.384-3.5V59.544a3.442,3.442,0,0,0-3.381-3.493h-26.1a3.442,3.442,0,0,0-3.381,3.493V75.9a3.446,3.446,0,0,0,3.385,3.5H37.61a.55.55,0,0,1,.55.55v5.542l6.024-5.934a.55.55,0,0,1,.386-.158Z" transform="translate(0 0)" fill="#423e3e"/>
    <g id="Group_112" data-name="Group 112" transform="translate(1.219)">
      <path id="Path_26891" data-name="Path 26891" d="M111.277,128.179l1.951,1.025-.372-2.172,1.578-1.539-2.181-.316-.976-1.977-.976,1.977-2.181.316,1.579,1.539-.373,2.172Z" transform="translate(-73.492 -63.311)" fill="#423e3e"/>
      <path id="Path_26891_-_Outline" data-name="Path 26891 - Outline" d="M109.595,125.938a.367.367,0,0,1-.171-.042l-1.781-.936-1.781.936a.367.367,0,0,1-.532-.387l.341-1.982-1.441-1.4a.367.367,0,0,1,.2-.626l1.99-.289.89-1.8a.367.367,0,0,1,.658,0l.89,1.8,1.99.289a.367.367,0,0,1,.2.626l-1.44,1.4.34,1.982a.367.367,0,0,1-.362.429Zm-1.951-1.759a.367.367,0,0,1,.171.042l1.294.68-.247-1.44a.367.367,0,0,1,.105-.325l1.046-1.02-1.446-.21a.367.367,0,0,1-.276-.2l-.647-1.31-.647,1.31a.367.367,0,0,1-.276.2l-1.446.21,1.046,1.02a.367.367,0,0,1,.105.325l-.247,1.44,1.293-.679A.367.367,0,0,1,107.644,124.179Z" transform="translate(-69.859 -59.678)" fill="#423e3e"/>
    </g>
    <g id="Group_113" data-name="Group 113" transform="translate(10.219)">
      <path id="Path_26891-2" data-name="Path 26891" d="M111.277,128.179l1.951,1.025-.372-2.172,1.578-1.539-2.181-.316-.976-1.977-.976,1.977-2.181.316,1.579,1.539-.373,2.172Z" transform="translate(-73.492 -63.311)" fill="#423e3e"/>
      <path id="Path_26891_-_Outline-2" data-name="Path 26891 - Outline" d="M109.595,125.938a.367.367,0,0,1-.171-.042l-1.781-.936-1.781.936a.367.367,0,0,1-.532-.387l.341-1.982-1.441-1.4a.367.367,0,0,1,.2-.626l1.99-.289.89-1.8a.367.367,0,0,1,.658,0l.89,1.8,1.99.289a.367.367,0,0,1,.2.626l-1.44,1.4.34,1.982a.367.367,0,0,1-.362.429Zm-1.951-1.759a.367.367,0,0,1,.171.042l1.294.68-.247-1.44a.367.367,0,0,1,.105-.325l1.046-1.02-1.446-.21a.367.367,0,0,1-.276-.2l-.647-1.31-.647,1.31a.367.367,0,0,1-.276.2l-1.446.21,1.046,1.02a.367.367,0,0,1,.105.325l-.247,1.44,1.293-.679A.367.367,0,0,1,107.644,124.179Z" transform="translate(-69.859 -59.678)" fill="#423e3e"/>
    </g>
    <g id="Group_114" data-name="Group 114" transform="translate(19.219)">
      <path id="Path_26891-3" data-name="Path 26891" d="M111.277,128.179l1.951,1.025-.372-2.172,1.578-1.539-2.181-.316-.976-1.977-.976,1.977-2.181.316,1.579,1.539-.373,2.172Z" transform="translate(-73.492 -63.311)" fill="#423e3e"/>
      <path id="Path_26891_-_Outline-3" data-name="Path 26891 - Outline" d="M109.595,125.938a.367.367,0,0,1-.171-.042l-1.781-.936-1.781.936a.367.367,0,0,1-.532-.387l.341-1.982-1.441-1.4a.367.367,0,0,1,.2-.626l1.99-.289.89-1.8a.367.367,0,0,1,.658,0l.89,1.8,1.99.289a.367.367,0,0,1,.2.626l-1.44,1.4.34,1.982a.367.367,0,0,1-.362.429Zm-1.951-1.759a.367.367,0,0,1,.171.042l1.294.68-.247-1.44a.367.367,0,0,1,.105-.325l1.046-1.02-1.446-.21a.367.367,0,0,1-.276-.2l-.647-1.31-.647,1.31a.367.367,0,0,1-.276.2l-1.446.21,1.046,1.02a.367.367,0,0,1,.105.325l-.247,1.44,1.293-.679A.367.367,0,0,1,107.644,124.179Z" transform="translate(-69.859 -59.678)" fill="#423e3e"/>
    </g>
    <g id="Group_115" data-name="Group 115" transform="translate(15 8.259)">
      <path id="Path_26891-4" data-name="Path 26891" d="M111.277,128.179l1.951,1.025-.372-2.172,1.578-1.539-2.181-.316-.976-1.977-.976,1.977-2.181.316,1.579,1.539-.373,2.172Z" transform="translate(-73.492 -63.311)" fill="#423e3e"/>
      <path id="Path_26891_-_Outline-4" data-name="Path 26891 - Outline" d="M109.595,125.938a.367.367,0,0,1-.171-.042l-1.781-.936-1.781.936a.367.367,0,0,1-.532-.387l.341-1.982-1.441-1.4a.367.367,0,0,1,.2-.626l1.99-.289.89-1.8a.367.367,0,0,1,.658,0l.89,1.8,1.99.289a.367.367,0,0,1,.2.626l-1.44,1.4.34,1.982a.367.367,0,0,1-.362.429Zm-1.951-1.759a.367.367,0,0,1,.171.042l1.294.68-.247-1.44a.367.367,0,0,1,.105-.325l1.046-1.02-1.446-.21a.367.367,0,0,1-.276-.2l-.647-1.31-.647,1.31a.367.367,0,0,1-.276.2l-1.446.21,1.046,1.02a.367.367,0,0,1,.105.325l-.247,1.44,1.293-.679A.367.367,0,0,1,107.644,124.179Z" transform="translate(-69.859 -59.678)" fill="#423e3e"/>
    </g>
    <g id="Group_116" data-name="Group 116" transform="translate(6 8.259)">
      <path id="Path_26891-5" data-name="Path 26891" d="M111.277,128.179l1.951,1.025-.372-2.172,1.578-1.539-2.181-.316-.976-1.977-.976,1.977-2.181.316,1.579,1.539-.373,2.172Z" transform="translate(-73.492 -63.311)" fill="#423e3e"/>
      <path id="Path_26891_-_Outline-5" data-name="Path 26891 - Outline" d="M109.595,125.938a.367.367,0,0,1-.171-.042l-1.781-.936-1.781.936a.367.367,0,0,1-.532-.387l.341-1.982-1.441-1.4a.367.367,0,0,1,.2-.626l1.99-.289.89-1.8a.367.367,0,0,1,.658,0l.89,1.8,1.99.289a.367.367,0,0,1,.2.626l-1.44,1.4.34,1.982a.367.367,0,0,1-.362.429Zm-1.951-1.759a.367.367,0,0,1,.171.042l1.294.68-.247-1.44a.367.367,0,0,1,.105-.325l1.046-1.02-1.446-.21a.367.367,0,0,1-.276-.2l-.647-1.31-.647,1.31a.367.367,0,0,1-.276.2l-1.446.21,1.046,1.02a.367.367,0,0,1,.105.325l-.247,1.44,1.293-.679A.367.367,0,0,1,107.644,124.179Z" transform="translate(-69.859 -59.678)" fill="#423e3e"/>
    </g>
  </g>
</svg>
