<svg xmlns="http://www.w3.org/2000/svg" width="28.332" height="31.994" viewBox="0 0 28.332 31.994">
  <path id="Path_26901" data-name="Path 26901" d="M12.188,5.973c-2.007,2.009-3.5,4.781-3.643,6.111-.366,4.235,3.492,10.6,7.226,15.145,3.757,4.572,9.25,9.59,13.4,9.962l.2,0a14.107,14.107,0,0,0,6.342-2.538A2.631,2.631,0,0,0,36.832,32.8a2.75,2.75,0,0,0-.591-2.063l-4.49-5.474a2.61,2.61,0,0,0-3.658-.282l-.72.631a3.5,3.5,0,0,1-2.19.813,2.255,2.255,0,0,1-1.75-.822L18.749,19.93a2.407,2.407,0,0,1-.5-1.942,3.371,3.371,0,0,1,1.148-2l.718-.63a2.683,2.683,0,0,0,.945-1.779,2.428,2.428,0,0,0,.01-.267,2.618,2.618,0,0,0-.573-1.682l-4.54-5.553c-.037-.046-.057-.07-.078-.092A2.55,2.55,0,0,0,14.022,5.2,2.591,2.591,0,0,0,12.188,5.973Zm2.864,1.068,4.47,5.428a1.336,1.336,0,0,1,.282.884,1.88,1.88,0,0,1-.069.306,1.26,1.26,0,0,1-.424.62l-.7.617a4.551,4.551,0,0,0-1.642,2.83,3.638,3.638,0,0,0,.753,3.02l4.651,5.679a3.607,3.607,0,0,0,2.78,1.327h.089a4.42,4.42,0,0,0,2.927-1.1L28.944,26a1.17,1.17,0,0,1,.641-.287,1.313,1.313,0,0,1,1.092.4l4.478,5.5a1.189,1.189,0,0,1,.3.747l.045.007-.033.207,0,.018-.01.05v.233L35.4,32.87l-.071.288-.049-.066a1.27,1.27,0,0,1-.387.426,12.582,12.582,0,0,1-5.468,2.317l-.136,0c-3.066-.3-7.956-4.013-12.483-9.458-4.5-5.457-7.228-11-6.942-14.127a8.036,8.036,0,0,1,.949-2.278,16.494,16.494,0,0,1,2.32-3.03,1.336,1.336,0,0,1,.958-.4A1.313,1.313,0,0,1,15.052,7.041Z" transform="translate(-8.521 -5.197)" fill="#423e3e"/>
</svg>
