<svg xmlns="http://www.w3.org/2000/svg" width="35.297" height="35.501" viewBox="0 0 35.297 35.501">
  <g id="Live_chat_icon" data-name="Live chat icon" transform="translate(-20.099 -17.95)">
    <path id="Path_26887" data-name="Path 26887" d="M203.625,212.845h-.015a11.49,11.49,0,0,1-11.252-9.21c-.059-.323.229-.381.551-.44s.559-.1.618.226a10.282,10.282,0,0,0,10.067,8.235A8.673,8.673,0,0,0,209,210.08a.6.6,0,0,1,.585-.074l3.15,1.308a.582.582,0,0,0,.523-.179.6.6,0,0,0,.158-.591l-1.292-3.157a.6.6,0,0,1,.068-.572,9.294,9.294,0,0,0,1.457-5.2,10.49,10.49,0,0,0-8.036-10.3c-.322-.065-.271-.242-.205-.564s.121-.667.442-.6a11.692,11.692,0,0,1,8.987,11.446,10.465,10.465,0,0,1-1.5,5.631l1.2,2.936a1.8,1.8,0,0,1-.443,1.815,1.778,1.778,0,0,1-1.749.458l-2.913-1.2A10,10,0,0,1,203.625,212.845Z" transform="translate(-159.451 -159.394)" fill="#413e3e"/>
    <g id="Group_137" data-name="Group 137">
      <path id="Path_26902" data-name="Path 26902" d="M4.815-.7a.338.338,0,0,0-.333-.333H1.98V-5.967A.338.338,0,0,0,1.647-6.3H1.206a.338.338,0,0,0-.333.333V-.333A.338.338,0,0,0,1.206,0H4.482a.338.338,0,0,0,.333-.333ZM7.038-5.967A.338.338,0,0,0,6.7-6.3H6.264a.338.338,0,0,0-.333.333V-.333A.338.338,0,0,0,6.264,0H6.7a.338.338,0,0,0,.333-.333ZM9.27-6.048A.391.391,0,0,0,8.9-6.3H8.514a.35.35,0,0,0-.351.342.361.361,0,0,0,.027.135L10.476-.234a.412.412,0,0,0,.378.252h.3a.391.391,0,0,0,.369-.252l2.232-5.589a.318.318,0,0,0,.027-.126.359.359,0,0,0-.36-.351H13.1a.414.414,0,0,0-.369.252L11.043-1.629ZM18.5-.7a.338.338,0,0,0-.333-.333h-2.3V-2.664h1.935A.338.338,0,0,0,18.144-3v-.369a.338.338,0,0,0-.333-.333H15.876V-5.265h2.2a.338.338,0,0,0,.333-.333v-.369a.338.338,0,0,0-.333-.333H15.1a.338.338,0,0,0-.333.333V-.333A.338.338,0,0,0,15.1,0h3.069A.338.338,0,0,0,18.5-.333Z" transform="translate(23.211 34.48)" fill="#423e3e"/>
      <path id="Path_26886" data-name="Path 26886" d="M33.492,17.95a13.389,13.389,0,1,1,0,26.778,11.9,11.9,0,0,1-7-1.953l-3.477,1.443a2.094,2.094,0,0,1-.621.1,2.049,2.049,0,0,1-1.616-.806,2.02,2.02,0,0,1-.344-1.772l1.484-3.649a12.466,12.466,0,0,1-1.81-6.769A13.4,13.4,0,0,1,33.492,17.95Zm-.036,25.589a12.2,12.2,0,1,0-12.164-12.2,11.307,11.307,0,0,0,1.772,6.338.6.6,0,0,1,.068.572l-1.58,3.872a.811.811,0,0,0,.165.669.853.853,0,0,0,.671.339.876.876,0,0,0,.234-.033l3.715-1.547a.594.594,0,0,1,.585.073A10.476,10.476,0,0,0,33.456,43.539Z" fill="#423e3e"/>
    </g>
  </g>
</svg>
