<svg id="icon-express-delivery" xmlns="http://www.w3.org/2000/svg" width="34.84" height="20.572" viewBox="0 0 34.84 20.572">
  <path id="Path_26797" data-name="Path 26797" d="M109.281,12.037l-2.847-1.326-2.619-5.119a1.229,1.229,0,0,0-1.078-.7h-3.02V.591A.591.591,0,0,0,99.127,0H81.851a.591.591,0,0,0,0,1.182H98.536V17.095H89.942a2.887,2.887,0,0,0-5.651,0H82.442V13.639a.591.591,0,0,0-1.182,0v4.047a.591.591,0,0,0,.591.591h2.439a2.887,2.887,0,0,0,5.651,0h11.029a2.887,2.887,0,0,0,5.651,0H109.5a.591.591,0,0,0,.591-.591V13.314a1.412,1.412,0,0,0-.814-1.277m-6.518-5.906,2.271,4.44H99.718v-4.5h3a.17.17,0,0,1,.042.056M87.116,19.39a1.7,1.7,0,1,1,1.7-1.7,1.706,1.706,0,0,1-1.7,1.7m16.68,0a1.706,1.706,0,0,1-1.7-1.695s0-.006,0-.01,0-.006,0-.01a1.7,1.7,0,1,1,1.7,1.714m5.117-2.3h-2.292a2.887,2.887,0,0,0-5.651,0H99.718V11.754h6.154l2.911,1.355a.227.227,0,0,1,.131.2Z" transform="translate(-75.256)" fill="#00968f"/>
  <path id="Path_26798" data-name="Path 26798" d="M14.532,118.551a.591.591,0,0,0-.591-.591H.591a.591.591,0,1,0,0,1.182h13.35a.591.591,0,0,0,.591-.591" transform="translate(0 -109.245)" fill="#00968f"/>
  <path id="Path_26799" data-name="Path 26799" d="M41.481,61.172H51.79a.591.591,0,1,0,0-1.182H41.481a.591.591,0,0,0,0,1.182" transform="translate(-37.869 -55.558)" fill="#00968f"/>
</svg>
