<svg xmlns="http://www.w3.org/2000/svg" xmlns:xlink="http://www.w3.org/1999/xlink" width="14.002" height="18.497" viewBox="0 0 14.002 18.497">
  <defs>
    <clipPath id="clip-path">
      <rect id="Rectangle_6258" data-name="Rectangle 6258" width="14.002" height="18.497" transform="translate(0 0)" fill="#423e3e"/>
    </clipPath>
  </defs>
  <g id="icon--swap" transform="translate(0 0)" clip-path="url(#clip-path)">
    <path id="Path_26898" data-name="Path 26898" d="M13.831,13.322,9.679,9.171A.6.6,0,0,0,9.262,9h0a.6.6,0,0,0-.418.171.6.6,0,0,0-.169.413V9.6a.6.6,0,0,0,.169.413L12,13.166H1.583a.583.583,0,1,0,0,1.166H12L8.841,17.488a.593.593,0,0,0-.17.416v.006a.581.581,0,0,0,.587.587h0a.6.6,0,0,0,.417-.17l4.151-4.166A.6.6,0,0,0,14,13.744v-.005a.6.6,0,0,0-.171-.417" fill="#423e3e"/>
    <path id="Path_26899" data-name="Path 26899" d="M.171,5.175,4.323,9.326A.6.6,0,0,0,4.74,9.5h0a.6.6,0,0,0,.418-.171.6.6,0,0,0,.169-.413V8.9a.6.6,0,0,0-.169-.413L2.005,5.331H12.419a.583.583,0,1,0,0-1.166H2.006L5.161,1.009a.593.593,0,0,0,.17-.416V.587A.6.6,0,0,0,5.161.17.6.6,0,0,0,4.744,0H4.739a.6.6,0,0,0-.417.17L.171,4.336A.6.6,0,0,0,0,4.753v.005a.6.6,0,0,0,.171.417" fill="#423e3e"/>
  </g>
</svg>
