<svg xmlns="http://www.w3.org/2000/svg" xmlns:xlink="http://www.w3.org/1999/xlink" width="56.983" height="40" viewBox="0 0 56.983 40">
  <defs>
    <clipPath id="clip-path">
      <rect id="Rectangle_5994" data-name="Rectangle 5994" width="56.983" height="40" fill="#423e3e"/>
    </clipPath>
  </defs>
  <g id="icon--order-tacking" clip-path="url(#clip-path)">
    <path id="Path_26679" data-name="Path 26679" d="M8.447,22.645a.877.877,0,0,0,.664-.3c.318-.367,7.783-9.051,7.783-14.247C16.894,2.78,12.644,0,8.447,0A9.059,9.059,0,0,0,2.8,1.959,7.615,7.615,0,0,0,0,8.1c0,5.2,7.465,13.879,7.783,14.246a.878.878,0,0,0,.664.3M1.756,8.1c0-4.652,4-6.34,6.691-6.34,4.6,0,6.691,3.286,6.691,6.339,0,1.837-1.253,4.665-3.624,8.179-1.173,1.737-2.357,3.248-3.067,4.122-.708-.87-1.886-2.373-3.057-4.106C3.012,12.768,1.756,9.935,1.756,8.1" transform="translate(0 0)" fill="#423e3e"/>
    <path id="Path_26680" data-name="Path 26680" d="M43.471,37.856a4.386,4.386,0,1,0-4.386,4.386,4.391,4.391,0,0,0,4.386-4.386m-7.015,0a2.63,2.63,0,1,1,2.63,2.63,2.633,2.633,0,0,1-2.63-2.63" transform="translate(-30.639 -29.553)" fill="#423e3e"/>
    <path id="Path_26681" data-name="Path 26681" d="M112.762,61.98l-4.951-2.305-4.535-8.865a1.977,1.977,0,0,0-1.733-1.129H96.2V42.128a.878.878,0,0,0-.878-.878H77.436a.878.878,0,0,0,0,1.756H94.443v6.676h0V61.223h0V70.71H79.374a4.833,4.833,0,0,0-9.5,0H66.426v-8.09a.878.878,0,0,0-1.756,0v8.968a.878.878,0,0,0,.878.878H69.87a4.833,4.833,0,0,0,9.5,0H98.616a4.833,4.833,0,0,0,9.505,0h5.085a.878.878,0,0,0,.878-.878V64.054a2.3,2.3,0,0,0-1.322-2.074M101.713,51.61l4.02,7.857H96.2v-8.03h5.345c.026,0,.1.043.17.173M74.622,74.666A3.078,3.078,0,1,1,77.7,71.588a3.082,3.082,0,0,1-3.078,3.078m28.746,0a3.078,3.078,0,1,1,3.078-3.078,3.082,3.082,0,0,1-3.078,3.078m8.96-3.956h-4.207a4.833,4.833,0,0,0-9.505,0H96.2V61.223h10.777l5.045,2.349a.534.534,0,0,1,.308.482Z" transform="translate(-57.101 -36.422)" fill="#423e3e"/>
  </g>
</svg>
