<svg id="icon--store" xmlns="http://www.w3.org/2000/svg" xmlns:xlink="http://www.w3.org/1999/xlink" width="31" height="24" viewBox="0 0 31 24">
  <defs>
    <clipPath id="clip-path">
      <rect id="Rectangle_142" data-name="Rectangle 142" width="31" height="24" fill="none"/>
    </clipPath>
  </defs>
  <g id="Group_207" data-name="Group 207" clip-path="url(#clip-path)">
    <path id="Path_460" data-name="Path 460" d="M30.5,0H.489A.465.465,0,0,0,0,.48v4.4a.466.466,0,0,0,.489.48h.9V23.52a.466.466,0,0,0,.489.48H29.028a.465.465,0,0,0,.489-.48V5.44H30.5a.465.465,0,0,0,.489-.48V.56A.453.453,0,0,0,30.5,0" fill="#909090"/>
    <rect id="Rectangle_137" data-name="Rectangle 137" width="3.506" height="17.36" transform="translate(25.114 5.44)" fill="#fff"/>
    <rect id="Rectangle_138" data-name="Rectangle 138" width="7.991" height="17.36" transform="translate(15.981 5.44)" fill="#fff"/>
    <rect id="Rectangle_139" data-name="Rectangle 139" width="7.991" height="17.36" transform="translate(7.012 5.44)" fill="#fff"/>
    <rect id="Rectangle_140" data-name="Rectangle 140" width="3.588" height="17.36" transform="translate(2.446 5.44)" fill="#fff"/>
    <rect id="Rectangle_141" data-name="Rectangle 141" width="28.946" height="3.36" transform="translate(1.06 1.04)" fill="#fff"/>
    <path id="Path_461" data-name="Path 461" d="M21.286,18.38a.521.521,0,0,0,.489-.48V16.38a.489.489,0,0,0-.978,0V17.9c-.082.32.163.48.489.48" transform="translate(-3.836 -3.18)" fill="#909090"/>
    <path id="Path_462" data-name="Path 462" d="M16.589,18.38a.521.521,0,0,0,.489-.48V16.38a.489.489,0,0,0-.978,0V17.9q.122.48.489.48" transform="translate(-2.972 -3.18)" fill="#909090"/>
    <path id="Path_463" data-name="Path 463" d="M11.049,27.34a.426.426,0,0,0,.326.16.328.328,0,0,0,.326-.16.413.413,0,0,0,.163-.32c0-.16,0-.24-.082-.32l-1.468-1.44a.426.426,0,0,0-.326-.16.328.328,0,0,0-.326.16.6.6,0,0,0-.163.32.474.474,0,0,0,.082.32Z" transform="translate(-1.754 -5.02)" fill="#909090"/>
    <path id="Path_464" data-name="Path 464" d="M13.417,26.14a.426.426,0,0,0,.326.16.328.328,0,0,0,.326-.16.413.413,0,0,0,.163-.32c0-.16,0-.24-.082-.32l-2.935-2.96c-.082-.16-.163-.24-.326-.24a.328.328,0,0,0-.326.16.6.6,0,0,0-.163.32.474.474,0,0,0,.082.32Z" transform="translate(-1.92 -4.46)" fill="#909090"/>
    <path id="Path_465" data-name="Path 465" d="M18.534,4.48a1.233,1.233,0,0,0,.815-.24c.082-.08.408-.24.408-.4l-.163.08a.936.936,0,0,1-.652.24c-.326,0-.408-.24-.408-.48a1.88,1.88,0,0,1,.163-.72c.082-.08.326-.4.489-.4.082,0,.082.08.163.16.082.16.163.24.326.24S20,2.88,20,2.72c0-.24-.408-.32-.571-.32A1.589,1.589,0,0,0,17.8,3.76a.678.678,0,0,0,.734.72" transform="translate(-3.286 -0.48)" fill="#e8112d"/>
    <path id="Path_466" data-name="Path 466" d="M21.215,3.32h.163c.082,0,.163,0,.163.16,0,.08-.163.16-.245.16a.747.747,0,0,1-.571-.24l-.326.64a2.2,2.2,0,0,0,.978.24c.571,0,1.142-.32,1.142-.88a.775.775,0,0,0-.652-.72h-.245c-.082,0-.163,0-.163-.08s.082-.08.163-.08a1.534,1.534,0,0,1,.571.16l.245-.64a1.6,1.6,0,0,0-.815-.24c-.571,0-1.142.32-1.142.88a.768.768,0,0,0,.734.64" transform="translate(-3.766 -0.36)" fill="#e8112d"/>
    <path id="Path_467" data-name="Path 467" d="M15.9,3.64a.747.747,0,0,1-.571-.24L15,4.04a2.2,2.2,0,0,0,.978.24c.571,0,1.142-.32,1.142-.88a.775.775,0,0,0-.652-.72h-.245c-.082,0-.163,0-.163-.08s.082-.08.163-.08a1.534,1.534,0,0,1,.571.16l.245-.64a1.6,1.6,0,0,0-.815-.24c-.571,0-1.142.32-1.142.88a.637.637,0,0,0,.652.64H15.9c.082,0,.163,0,.163.16.082.16-.082.16-.163.16" transform="translate(-2.769 -0.36)" fill="#e8112d"/>
  </g>
</svg>
