<svg xmlns="http://www.w3.org/2000/svg" xmlns:xlink="http://www.w3.org/1999/xlink" width="16" height="23" viewBox="0 0 16 23">
  <defs>
    <clipPath id="clip-path">
      <rect id="Rectangle_5854" data-name="Rectangle 5854" width="16" height="23" transform="translate(0 -0.168)" fill="#423e3e"/>
    </clipPath>
  </defs>
  <g id="icon--inspiration" transform="translate(0 0.168)" clip-path="url(#clip-path)">
    <path id="Path_26445" data-name="Path 26445" d="M7.7,0A7.7,7.7,0,0,0,2.271,13.157,5.12,5.12,0,0,1,3.85,16.786v2.945a1.443,1.443,0,0,0,.962,1.355v.57A1.445,1.445,0,0,0,6.256,23.1H9.144a1.445,1.445,0,0,0,1.444-1.444v-.57a1.443,1.443,0,0,0,.962-1.355V16.786a5.12,5.12,0,0,1,1.578-3.629A7.7,7.7,0,0,0,7.7,0m0,17.325h2.887v.962H4.812v-.962Zm1.444,4.812H6.256a.483.483,0,0,1-.481-.481v-.481h3.85v.481a.483.483,0,0,1-.481.481m1.444-2.406a.483.483,0,0,1-.481.481H5.294a.483.483,0,0,1-.481-.481V19.25h5.775Zm1.862-7.257A6.135,6.135,0,0,0,10.6,16.362H4.8a6.123,6.123,0,0,0-1.848-3.888A6.737,6.737,0,1,1,14.437,7.7a6.68,6.68,0,0,1-1.988,4.774" fill="#423e3e"/>
  </g>
</svg>
