<svg xmlns="http://www.w3.org/2000/svg" xmlns:xlink="http://www.w3.org/1999/xlink" width="40" height="40" viewBox="0 0 40 40">
  <defs>
    <clipPath id="clip-path">
      <rect id="Rectangle_5991" data-name="Rectangle 5991" width="40" height="40" fill="#423e3e"/>
    </clipPath>
  </defs>
  <g id="icon--before-you-buy" clip-path="url(#clip-path)">
    <path id="Path_26670" data-name="Path 26670" d="M.914,40a.914.914,0,0,1-.873-1.185l2.7-8.7a19.993,19.993,0,1,1,6.984,7.049L1.2,39.955A.913.913,0,0,1,.914,40m8.929-4.752a.913.913,0,0,1,.487.141,18.164,18.164,0,1,0-5.816-5.875.914.914,0,0,1,.095.75l-2.3,7.4,7.247-2.373a.915.915,0,0,1,.284-.045" transform="translate(0)" fill="#423e3e"/>
    <path id="Path_26671" data-name="Path 26671" d="M172.347,102.437h-8.691a.914.914,0,0,1-.914-.914V98.283a.914.914,0,0,1,.914-.914h1.228V91.658h-1.228a.914.914,0,0,1-.914-.914V87.449a.914.914,0,0,1,.914-.914h6.6a.914.914,0,0,1,.914.914v9.919h1.175a.914.914,0,0,1,.914.914v3.241a.914.914,0,0,1-.914.914m-7.777-1.828h6.863V99.2h-1.175a.914.914,0,0,1-.914-.914V88.363H164.57v1.466H165.8a.914.914,0,0,1,.914.914v7.539a.914.914,0,0,1-.914.914H164.57ZM167.8,84.643a3.361,3.361,0,1,1,2.368-.959,3.311,3.311,0,0,1-2.368.959m0-4.941a1.472,1.472,0,0,0-1.1.462,1.457,1.457,0,0,0-.462,1.088,1.578,1.578,0,0,0,1.563,1.563,1.5,1.5,0,0,0,1.1-.447,1.57,1.57,0,0,0-1.1-2.666" transform="translate(-147.865 -70.754)" fill="#423e3e"/>
  </g>
</svg>
