<svg xmlns="http://www.w3.org/2000/svg" width="17.385" height="11.853" viewBox="0 0 17.385 11.853">
  <path id="icon--eye" d="M13.544,1.529a12.054,12.054,0,0,1,3.746,4.225l.095.173-.095.171a12.068,12.068,0,0,1-3.746,4.225,8.627,8.627,0,0,1-4.851,1.531,8.629,8.629,0,0,1-4.85-1.529A12.061,12.061,0,0,1,.095,6.1L0,5.927l.095-.173A12.054,12.054,0,0,1,3.841,1.529,8.637,8.637,0,0,1,8.693,0a8.64,8.64,0,0,1,4.851,1.529ZM8.6,3.137l.577.055a1.954,1.954,0,0,0-.327,1.085A1.885,1.885,0,0,0,10.7,6.193a1.79,1.79,0,0,0,.9-.243c0,.066.007.133.007.2A3.015,3.015,0,1,1,8.6,3.137Zm6.821,2.79a9.675,9.675,0,0,0-2.941-3.27,6.742,6.742,0,0,0-3.787-1.2,6.741,6.741,0,0,0-3.786,1.2,9.693,9.693,0,0,0-2.943,3.27A9.66,9.66,0,0,0,4.907,9.195a6.741,6.741,0,0,0,3.786,1.2,6.745,6.745,0,0,0,3.787-1.2,9.657,9.657,0,0,0,2.941-3.268Z" fill="#e8112d"/>
</svg>
