<svg xmlns="http://www.w3.org/2000/svg" width="25.643" height="25.793" viewBox="0 0 25.643 25.793">
  <g id="_25x25x_Icon_black_and_White" data-name="25x25x Icon_black and White" transform="translate(-0.58 -0.51)">
    <path id="Union_52" data-name="Union 52" d="M-15790.9-3533.273a.646.646,0,0,1-.634-.507,4.594,4.594,0,0,1,.266-2.481c.84-2.124,2.988-3.048,4.641-3.448,0,0,.008,0,.013,0l3.511-.783v-2.261a6.522,6.522,0,0,1-1.143-2.711h-1.2a2.072,2.072,0,0,1-2.156-1.974v-2.846a1.937,1.937,0,0,1,.978-1.652,7.62,7.62,0,0,1,7.853-7.126,7.622,7.622,0,0,1,7.853,7.115,1.938,1.938,0,0,1,1,1.664v2.846a2.073,2.073,0,0,1-2.16,1.974h-1.211a6.543,6.543,0,0,1-1.143,2.711v2.263l3.5.781s0,0,.008,0c1.657.4,3.8,1.324,4.646,3.448a4.7,4.7,0,0,1,.266,2.481.654.654,0,0,1-.639.507Zm4.574-5.172c-1.938.468-3.187,1.348-3.714,2.608a3.451,3.451,0,0,0-.258,1.264h23.042a3.463,3.463,0,0,0-.261-1.264c-.523-1.26-1.771-2.14-3.71-2.608l-3.377-.753c-.507,1.173-2.159,2.013-4.173,2.013s-3.666-.84-4.178-2.013Zm7.55-.04c1.407,0,2.979-.614,3.038-1.438a.4.4,0,0,1,0-.049v-3.273l.17-.186a4.45,4.45,0,0,0,.85-1.666,7.35,7.35,0,0,1-1.832.208h-.062a2.165,2.165,0,0,1-2.063,1.51,2.166,2.166,0,0,1-2.159-2.164,2.165,2.165,0,0,1,2.159-2.164,2.166,2.166,0,0,1,2.066,1.518,3.984,3.984,0,0,0,2.1-.408.208.208,0,0,0,.032-.036c.008-.206.007-.421,0-.646a.652.652,0,0,1,.013-.158l.007-4.079a5.761,5.761,0,0,0-.736-2.037,3.871,3.871,0,0,0-3.567-1.914h-.008a3.872,3.872,0,0,0-3.587,1.95,5.825,5.825,0,0,0-.717,2l.012,4.221,0,.016c0,.074-.007.148-.008.22v.3a5.3,5.3,0,0,0,1.1,3.336l.174.186,0,.254v3.016a.792.792,0,0,1,0,.084C-15781.711-3539.209-15780.446-3538.485-15778.775-3538.485Zm-.761-7.059a.859.859,0,0,0,.859.864.861.861,0,0,0,.864-.864.864.864,0,0,0-.864-.864A.862.862,0,0,0-15779.536-3545.544Zm6.381-1.225h1.069a.791.791,0,0,0,.856-.674v-2.846a.791.791,0,0,0-.856-.674h-1.069Zm-13.15-3.519v2.846a.793.793,0,0,0,.856.674h1.074v-4.193h-1.074A.793.793,0,0,0-15786.306-3550.288Zm14.063-1.974a6.364,6.364,0,0,0-6.532-5.5,6.364,6.364,0,0,0-6.532,5.5h1.056a7.06,7.06,0,0,1,.78-1.926,5.147,5.147,0,0,1,4.7-2.58,5.142,5.142,0,0,1,4.7,2.58,7.068,7.068,0,0,1,.781,1.926Z" transform="translate(15792.179 3559.576)" fill="#423e3e"/>
  </g>
</svg>
