<svg xmlns="http://www.w3.org/2000/svg" xmlns:xlink="http://www.w3.org/1999/xlink" width="42.746" height="40" viewBox="0 0 42.746 40">
  <defs>
    <clipPath id="clip-path">
      <rect id="Rectangle_5993" data-name="Rectangle 5993" width="42.746" height="40" fill="#423e3e"/>
    </clipPath>
  </defs>
  <g id="icon--payments" clip-path="url(#clip-path)">
    <path id="Path_26675" data-name="Path 26675" d="M5.937,38.847a.583.583,0,0,0,.583.584H30.254a.583.583,0,1,0,0-1.167H6.52a.582.582,0,0,0-.583.583" transform="translate(-0.832 -5.36)" fill="#423e3e"/>
    <path id="Path_26676" data-name="Path 26676" d="M6.52,35.584H19.944a.584.584,0,1,0,0-1.169H6.52a.584.584,0,0,0,0,1.169" transform="translate(-0.832 -4.821)" fill="#423e3e"/>
    <path id="Path_26677" data-name="Path 26677" d="M39.9,10.1H38.58V6.756a6.756,6.756,0,1,0-13.511,0V10.1h-1.3a2.841,2.841,0,0,0-2.691,1.961H2.494A2.494,2.494,0,0,0,0,14.551v22.96A2.494,2.494,0,0,0,2.494,40H36.031a2.494,2.494,0,0,0,2.489-2.489V26.64H39.9a2.849,2.849,0,0,0,2.845-2.845V12.945A2.849,2.849,0,0,0,39.9,10.1M26.6,6.756A5.238,5.238,0,1,1,37.07,6.621q0,.067,0,.134V10.1H26.6ZM1.6,14.551a.889.889,0,0,1,.884-.889H20.919V17.32H1.6ZM36.916,37.507a.89.89,0,0,1-.889.889H2.49a.886.886,0,0,1-.884-.887V23.326H20.919v.469a2.848,2.848,0,0,0,2.845,2.845H36.916ZM41.228,23.8A1.332,1.332,0,0,1,39.9,25.123H23.763A1.328,1.328,0,0,1,22.436,23.8V12.941a1.328,1.328,0,0,1,1.327-1.327H39.9a1.332,1.332,0,0,1,1.329,1.327Z" transform="translate(0 0)" fill="#423e3e"/>
    <path id="Path_26678" data-name="Path 26678" d="M36.782,17.682a1.437,1.437,0,0,0-.758,2.669v2.606a.759.759,0,0,0,1.518,0V20.351a1.438,1.438,0,0,0-.759-2.669" transform="translate(-4.949 -2.477)" fill="#423e3e"/>
  </g>
</svg>
