<svg id="quick-del-icon-wht" xmlns="http://www.w3.org/2000/svg" width="31" height="18.307" viewBox="0 0 31 18.307">
  <path id="Path_26800" data-name="Path 26800" d="M30.94,10.712l-2.534-1.18L26.076,4.976a1.094,1.094,0,0,0-.959-.623H22.43V.526A.526.526,0,0,0,21.9,0H6.531a.526.526,0,0,0,0,1.052H21.379V15.213H13.731a2.569,2.569,0,0,0-5.029,0H7.057V12.137a.526.526,0,0,0-1.052,0v3.6a.526.526,0,0,0,.526.526H8.7a2.569,2.569,0,0,0,5.029,0h9.815a2.569,2.569,0,0,0,5.029,0h2.562a.526.526,0,0,0,.526-.526V11.848a1.257,1.257,0,0,0-.724-1.136m-5.8-5.256,2.021,3.951H22.43v-4H25.1a.156.156,0,0,1,.037.05m-13.921,11.8a1.513,1.513,0,1,1,1.513-1.513,1.513,1.513,0,0,1-1.513,1.513m14.843,0a1.517,1.517,0,0,1-1.513-1.508v-.018a1.513,1.513,0,1,1,1.513,1.525m4.554-2.047h-2.04a2.569,2.569,0,0,0-5.029,0H22.43V10.46h5.476l2.59,1.206a.2.2,0,0,1,.117.178Z" transform="translate(-0.661)" fill="#16867d"/>
  <path id="Path_26801" data-name="Path 26801" d="M12.933,9.241a.526.526,0,0,0-.526-.526H.527a.526.526,0,1,0,0,1.052H12.407a.526.526,0,0,0,.526-.526" transform="translate(0 -0.96)" fill="#16867d"/>
  <path id="Path_26802" data-name="Path 26802" d="M3.548,5.484h9.174a.526.526,0,1,0,0-1.052H3.548a.526.526,0,0,0,0,1.052" transform="translate(-0.333 -0.488)" fill="#16867d"/>
</svg>
