<svg xmlns="http://www.w3.org/2000/svg" width="31" height="18.305" viewBox="0 0 31 18.305">
  <g id="quick-del-icon-wht" transform="translate(689.596 292.199)">
    <path id="Path_26797" data-name="Path 26797" d="M106.193,10.711l-2.533-1.18-2.33-4.555a1.094,1.094,0,0,0-.959-.622H97.684V.526A.526.526,0,0,0,97.158,0H81.786a.526.526,0,0,0,0,1.052H96.632V15.211H88.985a2.569,2.569,0,0,0-5.028,0H82.312V12.136a.526.526,0,0,0-1.052,0v3.6a.526.526,0,0,0,.526.526h2.171a2.569,2.569,0,0,0,5.028,0H98.8a2.569,2.569,0,0,0,5.028,0h2.565a.526.526,0,0,0,.526-.526v-3.89a1.257,1.257,0,0,0-.725-1.136m-5.8-5.255,2.021,3.951H97.684v-4h2.673a.151.151,0,0,1,.037.05m-13.923,11.8a1.517,1.517,0,1,1,1.517-1.517,1.518,1.518,0,0,1-1.517,1.517m14.842,0A1.518,1.518,0,0,1,99.8,15.745s0-.006,0-.008,0-.006,0-.008a1.517,1.517,0,1,1,1.516,1.525m4.553-2.043h-2.039a2.569,2.569,0,0,0-5.028,0H97.684V10.458h5.476l2.59,1.206a.2.2,0,0,1,.116.182Z" transform="translate(-765.513 -292.199)" fill="#fff"/>
    <path id="Path_26798" data-name="Path 26798" d="M12.931,118.486a.526.526,0,0,0-.526-.526H.526a.526.526,0,1,0,0,1.052H12.4a.526.526,0,0,0,.526-.526" transform="translate(-689.596 -402.404)" fill="#fff"/>
    <path id="Path_26799" data-name="Path 26799" d="M41.416,61.042h9.173a.526.526,0,1,0,0-1.052H41.416a.526.526,0,1,0,0,1.052" transform="translate(-727.797 -348.245)" fill="#fff"/>
  </g>
</svg>
