<?xml version="1.0" encoding="UTF-8"?>
<svg id="a" xmlns="http://www.w3.org/2000/svg" viewBox="0 0 519.55 231.02">
  <defs>
    <style>
      .b {
        fill: #db2b39;
      }
    </style>
  </defs>
  <path class="b" d="m505.5,121.69h.02v-.02c-6.78-7.28-14.76-13.19-23.79-17.17-16.96-7.48-34.18-14.39-51.36-21.34-13.78-5.58-27.47-11.24-39.25-20.59-9.41-7.48-12.57-20.41-7.63-31.37,5.56-12.3,15.34-19.68,28.54-21.44,21.86-2.91,33.89,5.13,39.27,23.4,1.27,4.29,2.57,8.57,3.98,12.81,4.33,12.93,17.04,21.5,30.59,20,14.93-1.65,23.21-14.01,18.77-28.19-3.8-12.12-12.77-19.72-23.5-25.41C463.31,2.92,443.96.32,424.05,0c-6.04.44-12.1.69-18.1,1.36-14.48,1.62-28.16,5.83-40.56,13.63-14.69,9.23-24.26,22.39-27.99,37.59-.3,1.22.15,2.49,1.08,3.33,7.13,6.5,12.41,14.24,15.77,23.18,3.35,8.92,3.93,17.71,1.73,26.12-.31,1.19-.68,2.36-1.1,3.49-.48,1.3-.1,2.78.95,3.68,3.06,2.63,6.39,5.05,9.93,7.31,15.11,9.59,32,15.2,48.56,21.57,12.68,4.87,25.52,9.47,36.39,17.98,5.96,4.66,10.59,10.31,12.15,18.01,3.45,17-6.64,35.48-22.94,41.93-6.72,2.67-13.78,3.53-20.45,2.76,0,0-2.32-.28-3.35-.52-4.92-1.15-20.11-4.76-30.78-32.17-6.16-15.81-14.94-46.71-43.31-32.89-5.93,2.89-10.73,8.89-12,16.66-.18,1.08.88,1.99,1.91,1.62.74-.27,1.54-.5,2.4-.7,1.46-.34,3.07-.52,4.65-.52,5.03,0,9.33,1.7,12.42,4.9,5.44,5.63,5.38,14.75,2.17,20.32l-.33.57c-1.48,2.58-3,5.21-4.76,7.8-.57.83-.44,1.96.33,2.6,3.53,2.9,7.61,5.8,12.31,8.67,9.1,5.55,29.85,12.69,58.33,12.69v-.02c10.72.24,21.51-.47,32.35-1.93,11.68-1.58,22.93-4.72,33.34-10.34,21.7-11.7,32.12-30.51,34.14-54.57,1.35-16.09-2.62-30.44-13.79-42.42Z"/>
  <path class="b" d="m175.85,121.7v-.03c-6.79-7.28-14.77-13.19-23.8-17.17-16.96-7.48-34.18-14.39-51.36-21.34-13.75-5.56-27.42-11.21-39.18-20.53-10.63-8.42-13.32-18.81-7.8-31.2,5.54-12.42,15.36-19.89,28.64-21.66,21.86-2.91,33.89,5.13,39.27,23.4,1.33,4.51,2.7,9,4.21,13.46,5.2,15.39,14.82,21.37,30.92,19.29,14.59-1.88,22.62-14.12,18.23-28.13-3.8-12.12-12.77-19.72-23.5-25.41C133.63,2.91,114.28.31,94.38,0c-6.04.44-12.1.69-18.1,1.36-14.48,1.62-28.16,5.83-40.56,13.63C11.97,29.93,1.51,55.07,7.65,82.57c3.73,16.71,14.42,28.24,28.42,37.13,15.11,9.59,32,15.2,48.56,21.57,12.68,4.87,25.52,9.47,36.39,17.98,5.96,4.66,10.59,10.31,12.15,18.01,3.45,17-6.64,35.48-22.94,41.93-6.72,2.67-13.78,3.53-20.45,2.76,0,0-2.32-.28-3.35-.52-4.92-1.15-20.11-4.76-30.78-32.17-6.16-15.81-14.94-46.71-43.31-32.89-15.44,7.52-23.29,36.06,19.12,61.92,9.1,5.55,29.85,12.69,58.33,12.69v-.02c10.72.24,21.51-.47,32.35-1.93,11.68-1.58,22.93-4.72,33.34-10.34,21.7-11.7,32.12-30.51,34.14-54.57,1.35-16.09-2.62-30.44-13.79-42.42h.02Z"/>
  <path class="b" d="m302.82,198.19c-25.17,1.04-44.51-9.61-57.93-30.7-9.93-15.6-13.11-33.15-13.24-51.37-.26-10.09,1.08-19.96,4.08-29.56,3.3-10.53,8.2-20.13,17.44-26.8h-.02c16.28-11.76,35.8-5.39,41.56,13.47.38,1.23.66,2.49.91,3.75,1.49,7.68,2.72,15.43,4.51,23.05,2.09,8.92,6.63,15.72,16.59,17.45,12.51,2.16,23.29-4.11,26.32-15.66,1.61-6.12.89-12.15-1.31-18.01-5.03-13.39-15-22.09-27.53-27.99-18.02-8.5-37.19-10.02-56.79-7.8-17.26,1.97-33.57,9.06-46.29,20.89-12.72,11.84-21.58,25.6-26.15,40.43-.36,1.18-.02,2.46.83,3.36,27.13,28.75,15.8,66.63,11.83,77.39-.39,1.04-.24,2.2.39,3.11,17.9,25.84,48.41,40.49,82.94,37.41,21.31-1.91,39.09-10.93,53.26-26.89,3.1-3.49,10.46-13.24,7.59-16.1-4.73-4.73-15.32,9.45-38.99,10.57Z"/>
</svg>