<?xml version="1.0" encoding="UTF-8"?>
<svg id="a" data-name="Layer 1" xmlns="http://www.w3.org/2000/svg" width="24" height="19.5" viewBox="0 0 24 19.5">
  <g id="b" data-name="Group 48420">
    <path id="c" data-name="Path 26898" d="m21.54,4.86c.01.21.01.42.01.64.05,7.68-6.13,13.95-13.81,14.01-.06,0-.13,0-.19,0-2.68,0-5.29-.76-7.55-2.21.39.05.78.07,1.17.07,2.22,0,4.37-.74,6.11-2.11-2.11-.04-3.95-1.41-4.6-3.42.74.14,1.5.11,2.22-.08-2.3-.47-3.95-2.48-3.95-4.83v-.06c.68.38,1.45.59,2.23.62C1.03,6.03.36,3.15,1.67.91c2.5,3.08,6.19,4.95,10.15,5.15-.62-2.65,1.02-5.3,3.67-5.92,1.72-.4,3.52.14,4.72,1.43,1.1-.22,2.16-.62,3.13-1.19-.37,1.14-1.14,2.11-2.17,2.72.98-.12,1.93-.38,2.83-.78-.66.99-1.5,1.85-2.46,2.54" fill="#423e3e"/>
  </g>
</svg>