<?xml version="1.0" encoding="UTF-8"?>
<svg id="a" xmlns="http://www.w3.org/2000/svg" width="15.1" height="19.5" viewBox="0 0 15.1 19.5">
  <g id="b">
    <path id="c" d="m2.3,11.3c.2.1.4,0,.5-.2v-.1c0-.2.2-.7.2-.9.1-.2,0-.5-.2-.6-.4-.6-.6-1.4-.6-2.2,0-2.9,2.3-5.3,5.2-5.4h.3c3,0,4.7,1.8,4.7,4.3,0,3.2-1.4,5.9-3.5,5.9-1,0-1.8-.7-1.8-1.6v-.5c.4-1.3.8-2.6,1-4,.1-.8-.5-1.6-1.3-1.7h-.2c-1.2,0-2.2,1.2-2.2,2.9,0,.6.1,1.2.4,1.8l-1.4,6.1c-.4,1.4-.4,2.9-.1,4.3,0,.1.1.1.2.1,0,0,.1,0,.1-.1.9-1.1,1.6-2.3,2-3.7.1-.5.8-3.1.8-3.1.6.9,1.6,1.4,2.7,1.4,3.6,0,6-3.3,6-7.7,0-3.2-2.8-6.3-7.1-6.3C2.7,0,0,3.8,0,7c0,1.9.7,3.6,2.3,4.3" fill="#423e3e"/>
  </g>
</svg>