<svg width="60" height="82" viewBox="0 0 60 82" xmlns="http://www.w3.org/2000/svg">
  <title>Locator</title>
  <path d="M29.6 7.4A22.78 22.78 0 0 0 6.72 30.28c0 11.088 17.792 33.504 22.88 39.74 5.08-6.24 22.872-28.652 22.872-39.744 0-12.48-10.168-22.876-22.876-22.876h.004zm0 73.844l-1.56-1.816C27 78.128 0 46.192 0 30.356c0-16.1 13.24-29.6 29.6-29.6s29.6 13.24 29.6 29.6c0 15.84-27 47.516-28.04 48.812l-1.56 2.08v-.004zm.128-62.132c-4.344 0-8 3.656-8 8 0 4.344 3.656 8 8 8 4.344 0 8-3.656 8-8 0-4.344-3.656-8-8-8zm.072 21.36c-7.128 0-13.2-5.808-13.2-13.2 0-7.128 5.808-13.2 13.2-13.2 7.392 0 13.2 5.808 13.2 13.2 0 7.392-6.072 13.2-13.2 13.2z" fill="#DB2B39" fill-rule="evenodd"/>
</svg>
