<svg xmlns="http://www.w3.org/2000/svg" xmlns:xlink="http://www.w3.org/1999/xlink" width="16.789" height="22.807" viewBox="0 0 16.789 22.807">
  <defs>
    <clipPath id="clip-path">
      <rect id="Rectangle_9" data-name="Rectangle 9" width="16.789" height="22.807" fill="#423e3e"/>
    </clipPath>
  </defs>
  <g id="icon--location" clip-path="url(#clip-path)">
    <path id="Path_26" data-name="Path 26" d="M8.395,0A8.4,8.4,0,0,0,0,8.395c0,4.483,7.612,13.811,7.943,14.2a.541.541,0,0,0,.451.211.588.588,0,0,0,.451-.211c.331-.391,7.943-9.719,7.943-14.2A8.4,8.4,0,0,0,8.395,0m0,21.242C6.018,18.234,1.2,11.524,1.2,8.395a7.191,7.191,0,0,1,14.382,0c0,3.46-5.536,10.742-7.191,12.848" fill="#423e3e"/>
    <path id="Path_27" data-name="Path 27" d="M16.295,11.3a4.995,4.995,0,1,0,4.995,4.995A5,5,0,0,0,16.295,11.3m0,8.786a3.791,3.791,0,1,1,3.791-3.791,3.795,3.795,0,0,1-3.791,3.791" transform="translate(-7.9 -7.9)" fill="#423e3e"/>
  </g>
</svg>
