<?xml version="1.0" encoding="UTF-8"?>
<svg id="a" data-name="Layer 1" xmlns="http://www.w3.org/2000/svg" viewBox="0 0 32 32">
  <defs>
    <style>
      .e, .f {
        fill: #fff;
      }

      .f {
        fill-rule: evenodd;
      }

      .g {
        isolation: isolate;
      }
    </style>
  </defs>
  <g id="b" data-name="Component 16 13">
    <g id="c" data-name="TOP" class="g">
      <g class="g">
        <path class="e" d="m5.51,31.16v-8.84h-3.3v-1.18h7.94v1.18h-3.32v8.84h-1.33Z"/>
        <path class="e" d="m10.85,26.28c0-1.66.45-2.97,1.34-3.91.89-.94,2.05-1.41,3.46-1.41.93,0,1.76.22,2.5.66s1.31,1.06,1.7,1.85c.39.79.58,1.69.58,2.69s-.21,1.93-.62,2.73-.99,1.41-1.74,1.82c-.75.41-1.56.62-2.43.62-.94,0-1.79-.23-2.53-.68s-1.31-1.08-1.69-1.87-.57-1.62-.57-2.5Zm1.37.02c0,1.21.32,2.16.97,2.85.65.69,1.46,1.04,2.44,1.04s1.82-.35,2.46-1.05c.65-.7.97-1.7.97-2.99,0-.82-.14-1.53-.41-2.14-.28-.61-.68-1.08-1.21-1.41-.53-.34-1.13-.5-1.79-.5-.94,0-1.75.32-2.42.97-.68.64-1.02,1.72-1.02,3.23Z"/>
        <path class="e" d="m22.15,31.16v-10.02h3.78c.67,0,1.17.03,1.52.1.49.08.91.24,1.24.47.33.23.6.55.8.97.2.42.3.87.3,1.37,0,.85-.27,1.57-.81,2.16-.54.59-1.52.88-2.94.88h-2.57v4.07h-1.33Zm1.33-5.26h2.59c.86,0,1.46-.16,1.83-.48s.54-.77.54-1.35c0-.42-.11-.78-.32-1.08-.21-.3-.49-.5-.84-.59-.22-.06-.64-.09-1.24-.09h-2.56v3.58Z"/>
      </g>
    </g>
    <path id="d" data-name="WL- nav-arrow" class="f" d="m15.07,1.01l-7.87,8.17c-.43.47-.43,1.19,0,1.65.43.44,1.13.45,1.57.02,0,0,.01-.01.02-.02l7.09-7.36,7.09,7.36c.43.44,1.13.45,1.57.02,0,0,.01-.01.02-.02.43-.47.43-1.19,0-1.65L16.65,1c-.43-.44-1.13-.45-1.57-.02,0,0-.01.01-.02.02"/>
  </g>
</svg>